<svg width="21" height="21" viewBox="0 0 21 21" fill="none" xmlns="http://www.w3.org/2000/svg">
<path d="M18.7184 0.30722H3.00412C1.82109 0.30722 0.861267 1.26704 0.861267 2.45008V18.1644C0.861267 19.3474 1.82109 20.3072 3.00412 20.3072H18.7184C19.9014 20.3072 20.8613 19.3474 20.8613 18.1644V2.45008C20.8613 1.26704 19.9014 0.30722 18.7184 0.30722ZM11.5756 13.1644H9.4327V15.3072C9.4327 15.7001 9.11127 16.0215 8.71841 16.0215H7.28984C6.89698 16.0215 6.57555 15.7001 6.57555 15.3072V5.30722C6.57555 4.91436 6.89698 4.59293 7.28984 4.59293H11.5756C13.9372 4.59293 15.8613 6.51704 15.8613 8.87865C15.8613 11.2403 13.9372 13.1644 11.5756 13.1644ZM11.5756 7.45008H9.4327V10.3072H11.5756C12.3613 10.3072 13.0041 9.66436 13.0041 8.87865C13.0041 8.09294 12.3613 7.45008 11.5756 7.45008Z" fill="black"/>
</svg>
