<svg width="29" height="20" viewBox="0 0 29 20" fill="none" xmlns="http://www.w3.org/2000/svg">
<path d="M6.44444 4.83333H22.5556V14.5H6.44444V4.83333ZM26.5833 9.66667C26.5833 11.0014 27.6653 12.0833 29 12.0833V16.9167C29 18.2514 27.918 19.3333 26.5833 19.3333H2.41667C1.08196 19.3333 0 18.2514 0 16.9167V12.0833C1.3347 12.0833 2.41667 11.0014 2.41667 9.66667C2.41667 8.33196 1.3347 7.25 0 7.25V2.41667C0 1.08196 1.08196 0 2.41667 0H26.5833C27.918 0 29 1.08196 29 2.41667V7.25C27.6653 7.25 26.5833 8.33196 26.5833 9.66667ZM24.1667 4.43056C24.1667 3.7632 23.6257 3.22222 22.9583 3.22222H6.04167C5.37431 3.22222 4.83333 3.7632 4.83333 4.43056V14.9028C4.83333 15.5701 5.37431 16.1111 6.04167 16.1111H22.9583C23.6257 16.1111 24.1667 15.5701 24.1667 14.9028V4.43056Z" fill="black"/>
</svg>
