<svg width="20" height="14" viewBox="0 0 20 14" fill="none" xmlns="http://www.w3.org/2000/svg">
<path d="M19.4109 0.701864C18.1988 0.193434 16.9857 3.75856e-08 15.7732 3.75856e-08C11.9242 -0.000312457 8.0755 1.94809 4.2265 1.94809C3.2612 1.94809 2.29653 1.8256 1.33123 1.51935C1.22279 1.48498 1.11405 1.46873 1.0078 1.46873C0.469993 1.46873 0 1.88497 0 2.46277V12.377C0 12.7717 0.225934 13.1457 0.588741 13.2976C1.80091 13.8063 3.01402 13.9998 4.2265 13.9998C8.0755 13.9998 11.9245 12.0514 15.7735 12.0514C16.7388 12.0514 17.7035 12.1739 18.6688 12.4801C18.7772 12.5145 18.886 12.5307 18.9922 12.5307C19.53 12.5307 20 12.1145 20 11.5367V1.62279C19.9997 1.22779 19.7738 0.854049 19.4109 0.701864ZM1.49998 3.13182C2.12872 3.28932 2.78496 3.36838 3.45995 3.41088C3.2762 4.32931 2.46871 5.02148 1.49998 5.02148V3.13182ZM1.49998 12.0379V10.5448C2.57402 10.5448 3.44307 11.397 3.49088 12.4635C2.78683 12.407 2.12872 12.2664 1.49998 12.0379ZM9.99984 9.99984C8.61893 9.99984 7.49988 8.65642 7.49988 6.99989C7.49988 5.34304 8.61924 3.99994 9.99984 3.99994C11.3804 3.99994 12.4998 5.34304 12.4998 6.99989C12.4998 8.65705 11.3801 9.99984 9.99984 9.99984ZM18.4997 10.868C17.9522 10.7308 17.3838 10.6539 16.8022 10.6042C16.9857 9.78922 17.6616 9.17048 18.4997 9.06423V10.868ZM18.4997 3.48963C17.5344 3.36745 16.7854 2.56152 16.7557 1.56622C17.3663 1.63404 17.946 1.76091 18.4997 1.96184V3.48963Z" fill="black"/>
</svg>
