<svg width="28" height="22" viewBox="0 0 28 22" fill="none" xmlns="http://www.w3.org/2000/svg">
<path d="M24.8923 0H2.26808C1.0138 0 0 1.0138 0 2.26336V18.8613C0 20.1109 1.0138 21.1247 2.26808 21.1247H24.8923C26.1465 21.1247 27.1603 20.1109 27.1603 18.8613V2.26336C27.1603 1.0138 26.1465 0 24.8923 0ZM2.551 2.26336H24.6093C24.7649 2.26336 24.8923 2.39068 24.8923 2.54628V4.52672H2.26808V2.54628C2.26808 2.39068 2.39539 2.26336 2.551 2.26336ZM24.6093 18.8613H2.551C2.39539 18.8613 2.26808 18.734 2.26808 18.5784V10.5624H24.8923V18.5784C24.8923 18.734 24.7649 18.8613 24.6093 18.8613ZM9.05344 14.146V16.0321C9.05344 16.3434 8.79882 16.598 8.4876 16.598H5.09256C4.78135 16.598 4.52672 16.3434 4.52672 16.0321V14.146C4.52672 13.8348 4.78135 13.5802 5.09256 13.5802H8.4876C8.79882 13.5802 9.05344 13.8348 9.05344 14.146ZM18.1069 14.146V16.0321C18.1069 16.3434 17.8523 16.598 17.541 16.598H11.1282C10.817 16.598 10.5624 16.3434 10.5624 16.0321V14.146C10.5624 13.8348 10.817 13.5802 11.1282 13.5802H17.541C17.8523 13.5802 18.1069 13.8348 18.1069 14.146Z" fill="black"/>
</svg>
